<?xml version="1.0" standalone="no"?><!DOCTYPE svg PUBLIC "-//W3C//DTD SVG 1.1//EN" "http://www.w3.org/Graphics/SVG/1.1/DTD/svg11.dtd"><svg t="1482406472782" class="icon" style="" viewBox="0 0 1024 1024" version="1.1" xmlns="http://www.w3.org/2000/svg" p-id="998" xmlns:xlink="http://www.w3.org/1999/xlink" width="128" height="128"><defs><style type="text/css"></style></defs><path d="M791.272727 651.682909l-139.636364-418.909091L372.363636 232.773818l-139.636364 418.909091 232.727273 0 0 93.090909L325.818182 744.773818l0 93.090909 372.363636 0 0-93.090909-139.636364 0 0-93.090909L791.272727 651.682909zM512 0C229.236364 0 0 229.282909 0 512.046545s229.236364 512 512 512 512-229.236364 512-512S794.763636 0 512 0zM512 977.501091c-257.070545 0-465.454545-208.430545-465.454545-465.454545s208.384-465.454545 465.454545-465.454545c257.070545 0 465.454545 208.430545 465.454545 465.454545S769.070545 977.501091 512 977.501091z" p-id="999" fill="#ceb078"></path></svg>