<?xml version="1.0" standalone="no"?><!DOCTYPE svg PUBLIC "-//W3C//DTD SVG 1.1//EN" "http://www.w3.org/Graphics/SVG/1.1/DTD/svg11.dtd"><svg t="1482406752748" class="icon" style="" viewBox="0 0 1024 1024" version="1.1" xmlns="http://www.w3.org/2000/svg" p-id="2437" xmlns:xlink="http://www.w3.org/1999/xlink" width="48" height="48"><defs><style type="text/css"></style></defs><path d="M872.908328 459.82878l-290.731524-302.373679c-18.069541-18.760273-42.208311-29.104875-68.100004-29.104875-25.867134 0-50.030463 10.344602-68.088748 29.104875l-290.731524 302.373679c-30.005384 31.223119-26.136264 58.189284-21.180392 69.468165 3.530406 7.996115 15.464203 29.959336 49.842175 29.959336l42.6074 0 0 232.625128c0 52.78725 37.965683 102.537328 91.911316 102.537328l48.894593 0 74.857918 0 0-54.657854L442.189539 648.233777c0-26.394137-3.998057-41.098024 22.980387-41.098024l48.907896 0 48.919153 0c26.978445 0 22.968108 14.703887 22.968108 41.098024l0 191.527105 0 54.657854 74.857918 0 48.919153 0c53.93233 0 91.886757-49.750077 91.886757-102.537328L801.628912 559.25628l42.61968 0c34.376948 0 46.311769-21.963221 49.842175-29.959336C899.057895 518.018064 902.915759 491.050876 872.908328 459.82878zM844.248591 511.39011l-36.69269 0-24.452925 0-29.398564 0 0 280.491299c0 26.371624-17.008372 54.657854-43.962258 54.657854L633.890606 846.539262 633.890606 648.233777c0-52.79953-16.938788-88.977497-70.894653-88.977497l-48.919153 0-48.907896 0c-53.956889 0-70.89363 36.177967-70.89363 88.977497l0 198.305485-75.839269 0c-26.967188 0-43.986817-28.287253-43.986817-54.657854L274.449187 511.39011l-29.386284 0-24.453948 0-36.691667 0c-0.841158 0-1.612731-3.308349-2.313695-3.355421 1.659803-2.886747 4.51278-10.227945 9.269108-15.160281l290.75506-302.175157c8.6848-9.04705 20.946055-14.575973 32.832779-14.470573 11.887748-0.105401 23.403013 5.423523 32.077579 14.470573L837.303412 492.874407c4.747117 4.932336 7.599072 12.273535 9.257851 15.160281C845.861322 508.081761 845.101006 511.39011 844.248591 511.39011z" p-id="2438" fill="#ceb078"></path></svg>